<?xml version="1.0" encoding="utf-8"?>
<svg id="Component_53_1" data-name="Component 53 – 1" width="41.241" height="39.793" viewBox="0 0 41.241 39.793" xmlns="http://www.w3.org/2000/svg" xmlns:bx="https://boxy-svg.com">
  <defs>
    <style bx:fonts="Bayon">@import url(https://fonts.googleapis.com/css2?family=Bayon%3Aital%2Cwght%400%2C400&amp;display=swap);</style>
  </defs>
  <rect id="Rectangle_724" data-name="Rectangle 724" width="21.019" height="20.1" rx="3" transform="translate(12.515 19.693)" fill="#1ac977" opacity="0.2" style="isolation: isolate"/>
  <path id="Path_30984" data-name="Path 30984" d="M1322.377,501.589h-18.125a4.511,4.511,0,0,1-4.505-4.507V478.958a4.513,4.513,0,0,1,4.505-4.505h2.194a.584.584,0,1,1,0,1.167h-2.194a3.345,3.345,0,0,0-3.338,3.338v18.123a3.342,3.342,0,0,0,3.336,3.34h18.126a3.344,3.344,0,0,0,3.338-3.338V478.96a3.346,3.346,0,0,0-3.339-3.338h-2.283a.584.584,0,0,1,0-1.167h2.284a4.515,4.515,0,0,1,4.505,4.5v18.124A4.513,4.513,0,0,1,1322.377,501.589Z" transform="translate(-1291.053 -463.936)" fill="#444b54"/>
  <path id="Path_30985" data-name="Path 30985" d="M1337.1,503.242h-22.571a.584.584,0,0,1,0-1.167H1337.1a.584.584,0,1,1,0,1.167Z" transform="translate(-1301.94 -485.108)" fill="#444b54"/>
  <path id="Path_30986" data-name="Path 30986" d="M1327.929,469.661a1.887,1.887,0,0,1-1.885-1.885.584.584,0,1,1,1.167,0,.718.718,0,0,0,1.437,0v-3.182a.718.718,0,0,0-1.437,0v1.377a.584.584,0,1,1-1.167,0v-1.377a1.885,1.885,0,1,1,3.771,0v3.182A1.887,1.887,0,0,1,1327.929,469.661Z" transform="translate(-1311.211 -454.93)" fill="#444b54"/>
  <path id="Path_30987" data-name="Path 30987" d="M1354.223,469.661a1.887,1.887,0,0,1-1.885-1.885.584.584,0,1,1,1.167,0,.718.718,0,0,0,1.437,0v-3.182a.718.718,0,1,0-1.436,0v1.377a.583.583,0,0,1-.583.584H1346.7a.584.584,0,1,1,0-1.167h5.635v-.794a1.885,1.885,0,1,1,3.77,0v3.181A1.887,1.887,0,0,1,1354.223,469.661Z" transform="translate(-1326.602 -454.93)" fill="#444b54"/>
  <path id="Path_30988" data-name="Path 30988" d="M1266.212,518.942a.581.581,0,0,1-.354-.12l-3.129-2.392a.584.584,0,0,1,.709-.927l2.666,2.038,2.039-2.666a.584.584,0,0,1,.927.709l-2.393,3.129A.583.583,0,0,1,1266.212,518.942Z" transform="translate(-1262.5 -494.745)" fill="#444b54"/>
  <path id="Path_30989" data-name="Path 30989" d="M1305.029,438.093a.583.583,0,0,1-.343-1.056l.868-.63a19.268,19.268,0,0,1,17.633-2.091.584.584,0,0,1-.413,1.091,18.093,18.093,0,0,0-16.55,1.954l-.853.62A.581.581,0,0,1,1305.029,438.093Z" transform="translate(-1294.655 -432.215)" fill="#444b54"/>
  <path id="Path_30990" data-name="Path 30990" d="M1295.854,456.585a.615.615,0,0,1-.114-.012.6.6,0,0,1-.11-.033.68.68,0,0,1-.1-.054.531.531,0,0,1-.089-.072.648.648,0,0,1-.073-.089.629.629,0,0,1-.054-.1.589.589,0,0,1-.035-.107.634.634,0,0,1-.009-.114.581.581,0,0,1,.17-.413.531.531,0,0,1,.089-.072.513.513,0,0,1,.1-.054.593.593,0,0,1,.11-.033.529.529,0,0,1,.226,0,.593.593,0,0,1,.11.033.5.5,0,0,1,.1.054.539.539,0,0,1,.089.072.581.581,0,0,1,.17.413.624.624,0,0,1-.009.114.554.554,0,0,1-.035.107.591.591,0,0,1-.053.1.665.665,0,0,1-.072.089.539.539,0,0,1-.089.072.665.665,0,0,1-.1.054.6.6,0,0,1-.11.033A.611.611,0,0,1,1295.854,456.585Z" transform="translate(-1287.621 -449.342)" fill="#444b54"/>
  <path id="Path_30991" data-name="Path 30991" d="M1274.67,476.637h-.01a.584.584,0,0,1-.574-.593,18.568,18.568,0,0,1,3.279-10.249.584.584,0,1,1,.961.661,17.4,17.4,0,0,0-3.074,9.607A.584.584,0,0,1,1274.67,476.637Z" transform="translate(-1271.383 -457.104)" fill="#444b54"/>
  <path id="Path_30992" data-name="Path 30992" d="M1285.01,554.49a.58.58,0,0,1-.339-.109,12.515,12.515,0,0,1-1.366-1.133l-.029-.03a18.487,18.487,0,0,1-3.639-6.014.584.584,0,1,1,1.095-.4,17.326,17.326,0,0,0,3.4,5.62,11.387,11.387,0,0,0,1.223,1.013.583.583,0,0,1-.34,1.058Z" transform="translate(-1275.61 -519.102)" fill="#444b54"/>
  <path id="Path_30993" data-name="Path 30993" d="M1395.159,449.652a.584.584,0,0,1-.573-.476l-.709-3.788a.584.584,0,0,1,.466-.681l3.788-.709a.584.584,0,0,1,.215,1.147l-3.215.6.6,3.214a.584.584,0,0,1-.574.691Z" transform="translate(-1363.203 -440.58)" fill="#444b54"/>
  <path id="Path_30994" data-name="Path 30994" d="M1410.847,485.058a.584.584,0,0,1-.426-.983,17.607,17.607,0,0,0,2.217-2.924,18.1,18.1,0,0,0-2.813-21.839.584.584,0,1,1,.827-.823,19.274,19.274,0,0,1,2.989,23.258,18.8,18.8,0,0,1-2.369,3.127A.583.583,0,0,1,1410.847,485.058Z" transform="translate(-1375.305 -451.565)" fill="#444b54"/>
  <g id="Group_6062" data-name="Group 6062" transform="translate(0.484 35.07)" opacity="0.2">
    <path id="Path_30995" data-name="Path 30995" d="M1271.769,583.706a.467.467,0,0,1-.467-.467V580.1a.467.467,0,1,1,.934,0v3.14A.467.467,0,0,1,1271.769,583.706Z" transform="translate(-1269.732 -579.632)" fill="#444b54"/>
    <path id="Path_30996" data-name="Path 30996" d="M1268.183,587.29h-3.14a.467.467,0,1,1,0-.934h3.14a.467.467,0,0,1,0,.934Z" transform="translate(-1264.576 -584.786)" fill="#444b54"/>
  </g>
  <path id="Path_30997" data-name="Path 30997" d="M1423.849,433.442a2.025,2.025,0,1,1,2.025-2.025A2.028,2.028,0,0,1,1423.849,433.442Zm0-3.117a1.092,1.092,0,1,0,1.092,1.092A1.093,1.093,0,0,0,1423.849,430.325Z" transform="translate(-1384.633 -429.391)" fill="#444b54" opacity="0.2" style="isolation: isolate"/>
  <text style="fill: rgb(26, 201, 119); font-family: Bayon; font-size: 18px; white-space: pre;" x="19.276" y="35.222">7</text>
</svg>